<svg width="120" height="40" viewBox="0 0 120 40" xmlns="http://www.w3.org/2000/svg">
  <defs>
    <linearGradient id="logoGradient" x1="0%" y1="0%" x2="100%" y2="100%">
      <stop offset="0%" style="stop-color:#667eea;stop-opacity:1" />
      <stop offset="100%" style="stop-color:#764ba2;stop-opacity:1" />
    </linearGradient>
  </defs>
  
  <!-- Background rounded rectangle -->
  <rect x="2" y="2" width="36" height="36" rx="8" fill="url(#logoGradient)" />
  
  <!-- Kanban columns representation -->
  <rect x="8" y="8" width="6" height="24" rx="2" fill="white" opacity="0.9" />
  <rect x="17" y="8" width="6" height="24" rx="2" fill="white" opacity="0.7" />
  <rect x="26" y="8" width="6" height="24" rx="2" fill="white" opacity="0.5" />
  
  <!-- Task cards -->
  <rect x="9" y="10" width="4" height="3" rx="1" fill="url(#logoGradient)" />
  <rect x="9" y="15" width="4" height="3" rx="1" fill="url(#logoGradient)" />
  
  <rect x="18" y="12" width="4" height="3" rx="1" fill="url(#logoGradient)" />
  
  <rect x="27" y="14" width="4" height="3" rx="1" fill="url(#logoGradient)" />
  <rect x="27" y="19" width="4" height="3" rx="1" fill="url(#logoGradient)" />
  <rect x="27" y="24" width="4" height="3" rx="1" fill="url(#logoGradient)" />
  
  <!-- Text -->
  <text x="45" y="16" font-family="system-ui, -apple-system, sans-serif" font-size="14" font-weight="700" fill="#4a5568">Todo</text>
  <text x="45" y="30" font-family="system-ui, -apple-system, sans-serif" font-size="11" font-weight="500" fill="#718096">Kanban</text>
</svg>